<?xml version="1.0" encoding="UTF-8"?>
<svg width="209px" height="59px" viewBox="0 0 209 59" version="1.1" xmlns="http://www.w3.org/2000/svg" xmlns:xlink="http://www.w3.org/1999/xlink">
    <title>Logo</title>
    <g id="Symbols" stroke="none" stroke-width="1" fill="none" fill-rule="evenodd">
        <g id="Footer/Mobile" transform="translate(-92.000000, -37.000000)">
            <g transform="translate(0.000000, 0.777265)" id="Mission">
                <g transform="translate(85.090014, 36.308284)">
                    <g id="Zearn_logo_pos_rgb" transform="translate(7.695499, 0.000000)">
                        <path d="M36.8476117,48.0040677 L18.79009,48.0040677 L29.1077674,37.5826125 L11.5855398,37.5826125 L1.81353931,47.4620534 C0.692190577,48.5764484 0,50.1142562 0,51.8119181 C0,55.2089606 2.77164643,57.9620032 6.19164471,57.9620032 L36.8476117,57.9620032 C39.6157972,57.9620032 41.8602251,55.7332133 41.8602251,52.9836084 L41.8602251,52.9830355 C41.8602251,50.2334306 39.6157972,48.0040677 36.8476117,48.0040677 L36.8476117,48.0040677 Z M151.934678,29.4827658 C151.934678,27.1336556 149.860413,25.6760614 147.858252,25.6760614 L139.502935,25.6760614 C139.495436,25.6760614 139.488515,25.6823638 139.488515,25.6898122 L139.488515,33.5702176 C139.488515,33.578239 139.495436,33.5845415 139.502935,33.5845415 L147.858252,33.5845415 C150.246887,33.5845415 151.934678,32.0816839 151.934678,29.4827658 L151.934678,29.4827658 Z M157.749656,40.560253 L162.949737,48.8004733 C163.667308,49.9480996 164.218177,51.1358327 164.218177,52.5023273 C164.218177,55.7807684 161.076785,58.2811385 157.768691,58.2811385 C155.784988,58.2811385 153.81859,57.4016545 152.533423,55.4662169 L145.141981,43.5419041 L139.451598,43.5419041 C139.446983,43.5419041 139.445829,43.5470607 139.442945,43.5504984 C139.442945,47.7966584 139.442945,52.221007 139.443522,52.221007 C139.443522,56.0999037 137.068155,58.2897328 133.282449,58.2897328 C129.694018,58.2897328 127.166369,55.6810745 127.166369,52.221007 C127.168099,52.2255906 127.162331,21.7759654 127.162331,21.7759654 C127.162331,16.891535 130.200471,15.7227094 132.479508,15.7181258 C132.478931,15.7186987 137.118339,15.7175528 137.118339,15.7175528 L150.746417,15.7175528 C155.906698,15.7175528 164.056665,19.4887342 164.056665,29.4827658 C164.056665,34.6187229 160.944692,38.6488794 157.749656,40.560253 L157.749656,40.560253 Z M75.7400697,47.9335944 L58.0482554,47.9335944 C57.5596842,47.9335944 57.1634051,47.5399752 57.1634051,47.0552563 L57.1634051,42.6612743 C57.1634051,42.1759825 57.5596842,41.7829362 58.0482554,41.7829362 L71.6123066,41.7829362 C74.3804921,41.7829362 76.62492,39.5535733 76.62492,36.8039684 L76.62492,36.8033955 C76.62492,34.0537906 74.3804921,31.8250006 71.6123066,31.8250006 L58.0482554,31.8250006 C57.5596842,31.8250006 57.1634051,31.4313814 57.1634051,30.9466626 L57.1634051,26.5526805 C57.1634051,26.0668158 57.5596842,25.6737695 58.0482554,25.6737695 L75.7008456,25.6737695 C78.4684542,25.6737695 80.7128822,23.4444066 80.7128822,20.6948017 L80.7128822,20.6942288 C80.7128822,17.9451969 78.4684542,15.715834 75.7008456,15.715834 C75.7008456,15.715834 50.093832,15.7164069 50.0932552,15.715834 C47.8124873,15.715834 44.7616573,16.8800759 44.7616573,21.7736736 L44.7616573,51.8388469 C44.7616573,56.7335905 47.8124873,57.8978324 50.0932552,57.8978324 C50.093832,57.8966865 75.7412234,57.8921029 75.7412234,57.8921029 C78.5094089,57.8921029 80.75326,55.66274 80.75326,52.9131351 C80.75326,50.1635302 78.508832,47.9335944 75.7400697,47.9335944 L75.7400697,47.9335944 Z M108.154201,40.9773633 L103.940491,27.9896485 L99.7313951,40.9773633 L108.154201,40.9773633 Z M124.204947,54.0836795 C123.387008,57.234352 119.82338,58.8850317 116.727558,58.0920637 C114.87018,57.6170851 113.401582,56.3445549 112.528845,54.1323806 L111.2979,50.8310213 L96.5900035,50.8310213 L95.3607884,54.1323806 C94.3980667,56.1004766 93.0194538,57.6170851 91.1626526,58.0920637 C88.0662534,58.8850317 84.5026256,57.234352 83.6846871,54.0836795 C83.34436,52.7710426 84.1605681,49.9114306 84.1605681,49.9114306 L93.742793,23.9824102 C94.5411194,21.9552999 95.6566999,19.3449228 97.5608008,17.4633428 C99.1066931,15.9358482 101.870264,15.3394034 103.940491,15.3394034 C105.994566,15.3394034 108.498566,15.9885599 110.25673,17.4633428 C112.392714,19.255542 113.372164,22.0584316 114.147418,23.9824102 L123.729066,49.9114306 C123.729066,49.9114306 124.54585,52.7710426 124.204947,54.0836795 L124.204947,54.0836795 Z M207.657173,21.9467056 L207.657173,50.7410676 C207.657173,55.5813806 205.899009,58.2473342 201.102705,58.2582203 C198.483917,58.2639499 196.933987,57.9717435 194.688406,55.4793948 C194.645721,55.4513201 179.365037,35.8631784 179.365037,35.8631784 L179.365037,52.2192882 C179.365037,56.0993307 176.989669,58.2897328 173.203387,58.2897328 C169.614956,58.2897328 167.087306,55.6799286 167.087306,52.2192882 C167.090191,52.2250177 167.087306,22.9808871 167.087306,22.9808871 C167.087306,18.1405741 168.753755,15.3497165 173.550636,15.339938 C176.582431,15.3336738 178.443847,16.1031507 180.96342,19.2864815 L195.319453,37.7917406 L195.319453,21.9467056 C195.319453,17.7131506 197.545422,15.3491436 201.499561,15.3491436 C205.454276,15.3491436 207.657173,17.7131506 207.657173,21.9467056 L207.657173,21.9467056 Z" id="Fill-1" fill="#FAD232"></path>
                        <path d="M37.6818808,13.2548309 C37.6818808,13.2548309 26.7904064,2.01401764 26.7915659,2.01401764 C24.0157965,-0.737427279 20.7611664,-0.616175216 18.0700383,2.05022086 C15.5203654,4.57812525 16.0195169,7.78354708 18.4955635,10.2373211 C18.494404,10.2344478 20.8840701,12.5957024 23.6905654,15.3684095 L23.6905654,15.3913957 L19.5616955,15.3913957 L19.5616955,15.3879478 L8.10671907,15.3879478 C5.32457263,15.3879478 3.06882522,17.6245024 3.06882522,20.3822686 L3.06882522,20.3822686 C3.06882522,23.1406093 5.32457263,25.3760147 8.10613934,25.3760147 L23.6267946,25.3760147 L14.1539309,34.7693143 L31.0995739,34.7693143 L37.4894089,27.9493167 C40.237351,24.7668811 41.9406113,23.2578388 41.9406113,20.3822686 C41.9406113,17.5440508 40.1753194,15.984439 37.6818808,13.2548309" id="Fill-3" fill="#1CC7E6"></path>
                    </g>
                </g>
            </g>
        </g>
    </g>
</svg>